# Motion Analysis HTR (source:MACFileLib v1.10)
[Header]
# KeyWord<space>Value<CR>
FileType htr
DataType HTRS
FileVersion 1
NumSegments 41
NumFrames 4
DataFrameRate 30
EulerRotationOrder ZYX
CalibrationUnits mm
RotationUnits Degrees
GlobalAxisofGravity Y
BoneLengthAxis Y
ScaleFactor 1.00
[SegmentNames&Hierarchy]
# ObjectName<tab>ParentObjectName<CR>
Hips	GLOBAL
Spine	Hips
Spine1	Spine
Spine2	Spine1
Neck	Spine2
Head	Neck
HeadTop_End	Head
LeftShoulder	Spine2
LeftArm	LeftShoulder
LeftForeArm	LeftArm
LeftHand	LeftForeArm
LeftHandIndex1	LeftHand
LeftHandIndex2	LeftHandIndex1
LeftHandIndex3	LeftHandIndex2
LeftHandIndex4	LeftHandIndex3
LeftHandThumb1	LeftHand
LeftHandThumb2	LeftHandThumb1
LeftHandThumb3	LeftHandThumb2
LeftHandThumb4	LeftHandThumb3
RightShoulder	Spine2
RightArm	RightShoulder
RightForeArm	RightArm
RightHand	RightForeArm
RightHandIndex1	RightHand
RightHandIndex2	RightHandIndex1
RightHandIndex3	RightHandIndex2
RightHandIndex4	RightHandIndex3
RightHandThumb1	RightHand
RightHandThumb2	RightHandThumb1
RightHandThumb3	RightHandThumb2
RightHandThumb4	RightHandThumb3
LeftUpLeg	Hips
LeftLeg	LeftUpLeg
LeftFoot	LeftLeg
LeftToeBase	LeftFoot
LeftToe_End	LeftToeBase
RightUpLeg	Hips
RightLeg	RightUpLeg
RightFoot	RightLeg
RightToeBase	RightFoot
RightToe_End	RightToeBase
[BasePosition]
# ObjectName<tab>Tx<tab>Ty<tab>Tz<tab>Rx<tab>Ry<tab>Rz<tab>BoneLength<CR>
Hips	10.843260	822.336530	-12.690015	97.234374	-43.527032	174.849775	3.937008
Spine	4.324737	0.000000	146.524372	-0.442183	9.379665	7.284196	3.937008
Spine1	0.476847	-0.000012	103.725081	-0.871372	2.187278	0.991217	3.937009
Spine2	3.027155	-0.000007	100.849966	-0.856348	2.202505	0.983497	3.937009
Neck	2.464486	0.000000	316.849807	4.558038	0.082407	13.220577	3.937009
Head	19.208952	0.000000	114.089235	-1.036836	8.371496	20.364578	3.937008
HeadTop_End	66.694439	0.603790	369.924862	-0.000000	0.000000	-0.000000	3.937007
LeftShoulder	-27.056324	109.128627	267.327386	-8.565021	1.115038	3.547030	3.937008
LeftArm	12.156755	138.949097	-90.169079	-54.766019	-56.609800	4.454988	3.937009
LeftForeArm	-22.856521	322.461693	-1.836662	-0.302170	-0.322459	-100.929973	3.937007
LeftHand	6.704860	280.135322	1.833648	-15.846243	2.068338	-9.074463	3.937005
LeftHandIndex1	0.000496	181.096966	-0.000534	-45.798740	0.257689	3.384679	41.837211
LeftHandIndex2	-0.000038	41.837230	-0.000153	-86.015313	6.505421	5.935432	3.937006
LeftHandIndex3	0.583954	38.302139	-0.980529	-52.157137	2.263406	3.625446	48.636157
LeftHandIndex4	-0.000343	48.636150	-0.000610	-0.000000	0.000001	-0.000000	3.937006
LeftHandThumb1	38.593987	62.739667	-32.070364	-5.518769	-6.008672	-11.751710	3.937005
LeftHandThumb2	29.216023	50.601241	-29.214383	10.158932	7.276710	43.024143	3.937005
LeftHandThumb3	33.539138	58.090932	-33.538490	27.449478	-0.419794	8.105151	3.937006
LeftHandThumb4	21.745217	37.663562	-21.743805	0.000000	-0.000000	0.000000	3.937006
RightShoulder	-27.056286	-109.128618	267.326928	-4.685218	2.959488	13.044747	3.937008
RightArm	12.156795	-138.949052	-90.168787	53.058048	-45.757452	41.653591	3.937008
RightForeArm	-26.341428	-322.196183	-1.718978	0.301654	-0.307495	100.556042	3.937007
RightHand	3.692093	-280.191534	1.808625	5.808632	-7.900957	19.147129	3.937008
RightHandIndex1	-1.954288	-181.043850	0.004425	45.112084	-0.559612	-2.574045	3.937008
RightHandIndex2	-0.530930	-49.162130	0.001984	87.701702	4.310797	-5.291269	-43.013796
RightHandIndex3	-0.139179	-43.013899	0.000000	50.415822	1.243528	-3.418275	3.937006
RightHandIndex4	-0.403557	-37.222897	-0.262985	0.000003	-0.000001	0.000000	3.937008
RightHandThumb1	36.574477	-63.444746	-33.035354	2.187272	-3.531242	4.616755	3.937007
RightHandThumb2	38.019288	-43.170311	-30.958323	-13.410386	5.627328	-41.222229	3.937008
RightHandThumb3	38.604741	-49.688269	-40.804830	-27.734995	0.774354	-18.849507	3.937009
RightHandThumb4	29.049298	-31.083600	-23.540151	-0.000000	0.000000	-0.000000	3.937007
LeftUpLeg	8.584090	130.259025	-71.382379	14.394360	-34.691706	7.410785	3.937006
LeftLeg	31.445686	1.243190	-357.658221	-6.832922	58.391776	-12.949990	3.937007
LeftFoot	-57.092365	-1.117859	-401.736289	-12.911916	-21.418936	-8.391425	3.937008
LeftToeBase	167.567879	12.843742	-168.310219	0.000000	-1.594029	0.000001	3.937008
LeftToe_End	133.766076	1.147575	3.990080	-0.000000	0.000000	-0.000003	3.937007
RightUpLeg	8.584076	-130.259035	-71.382379	-25.668216	-24.284313	-10.276783	3.937008
RightLeg	31.445660	-1.243134	-357.658356	-20.790917	57.727156	-15.597428	3.937008
RightFoot	-57.092412	1.117859	-401.736472	27.286299	-24.702836	-7.771982	3.937008
RightToeBase	167.567885	-12.843706	-168.310244	0.000000	-0.012977	-0.000000	3.937010
RightToe_End	133.766079	-1.147614	3.990084	-0.000000	-0.000000	-0.000001	3.937010
[Hips]
# Tx<tab>Ty<tab>Tz<tab>Rx<tab>Ry<tab>Rz<tab>BoneScaleFactor<CR>
18	162.234523	-87.141919	675.133108	-11.739074	-0.203897	-21.334444	1.000000
19	156.913882	-82.400494	670.551847	-11.806617	-1.189532	-21.214551	1.000000
20	148.565009	-74.718162	658.066611	-11.472850	-2.194656	-21.347797	1.000000
21	138.440409	-63.490553	639.847858	-10.514852	-3.182502	-21.683302	1.000000
[Spine]
# Tx<tab>Ty<tab>Tz<tab>Rx<tab>Ry<tab>Rz<tab>BoneScaleFactor<CR>
18	-0.000033	-0.000038	0.000000	-1.512757	8.964979	-1.045593	1.000000
19	-0.000014	0.000038	0.000000	-1.107802	8.812347	-1.027658	1.000000
20	-0.000005	0.000000	0.000076	-0.670496	8.318557	-0.978829	1.000000
21	-0.000014	0.000000	-0.000076	-0.249983	7.629815	-0.874002	1.000000
[Spine1]
# Tx<tab>Ty<tab>Tz<tab>Rx<tab>Ry<tab>Rz<tab>BoneScaleFactor<CR>
18	0.000000	0.000050	0.000000	-6.733422	12.981764	-2.207706	1.000000
19	0.000009	0.000088	-0.000092	-6.357814	12.954197	-2.159789	1.000000
20	0.000019	0.000012	-0.000016	-5.973155	12.542421	-1.989574	1.000000
21	0.000009	-0.000026	-0.000092	-5.664696	11.875736	-1.658011	1.000000
[Spine2]
# Tx<tab>Ty<tab>Tz<tab>Rx<tab>Ry<tab>Rz<tab>BoneScaleFactor<CR>
18	-0.000038	0.000007	-0.000008	-5.991844	13.226307	-2.720782	1.000000
19	-0.000001	0.000007	0.000053	-5.608764	13.192668	-2.645442	1.000000
20	-0.000000	-0.000031	-0.000015	-5.224180	12.768072	-2.415237	1.000000
21	-0.000039	0.000007	-0.000015	-4.919503	12.082306	-1.996837	1.000000
[Neck]
# Tx<tab>Ty<tab>Tz<tab>Rx<tab>Ry<tab>Rz<tab>BoneScaleFactor<CR>
18	0.000038	0.000038	0.000105	2.716396	-8.806781	6.849289	1.000000
19	-0.000039	0.000038	0.000028	2.966897	-8.367287	6.297720	1.000000
20	-0.000115	0.000114	0.000105	3.011522	-7.608159	5.601556	1.000000
21	-0.000000	-0.000038	0.000129	2.679108	-6.598982	5.033303	1.000000
[Head]
# Tx<tab>Ty<tab>Tz<tab>Rx<tab>Ry<tab>Rz<tab>BoneScaleFactor<CR>
18	0.000034	-0.000076	-0.000026	-9.375339	-12.937474	19.387671	1.000000
19	-0.000043	-0.000076	-0.000026	-9.968454	-12.874699	18.968956	1.000000
20	0.000035	0.000076	0.000135	-10.489844	-12.636253	17.751576	1.000000
21	0.000038	0.000000	0.000000	-10.712970	-12.311399	16.496342	1.000000
[HeadTop_End]
# Tx<tab>Ty<tab>Tz<tab>Rx<tab>Ry<tab>Rz<tab>BoneScaleFactor<CR>
18	-0.000076	0.000000	0.000000	0.000001	0.000000	-0.000001	1.000000
19	-0.000033	0.000000	0.000181	-0.000001	0.000000	-0.000000	1.000000
20	-0.000071	0.000000	0.000181	0.000001	0.000000	-0.000001	1.000000
21	-0.000061	-0.000038	0.000389	0.000001	-0.000001	-0.000000	1.000000
[LeftShoulder]
# Tx<tab>Ty<tab>Tz<tab>Rx<tab>Ry<tab>Rz<tab>BoneScaleFactor<CR>
18	-0.000034	-0.000102	-0.000040	14.550186	7.945917	-13.284293	1.000000
19	-0.000034	-0.000064	-0.000117	12.490100	5.966622	-7.686035	1.000000
20	-0.000034	0.000088	0.000112	11.077087	4.317128	-2.791263	1.000000
21	0.000040	-0.000056	-0.000020	10.525303	3.236332	0.268640	1.000000
[LeftArm]
# Tx<tab>Ty<tab>Tz<tab>Rx<tab>Ry<tab>Rz<tab>BoneScaleFactor<CR>
18	-0.000080	-0.000033	0.000027	22.782177	-13.087725	19.143028	1.000000
19	-0.000004	0.000006	0.000027	14.399393	-7.544288	23.013728	1.000000
20	-0.000077	-0.000077	0.000007	9.297834	-3.900784	26.726208	1.000000
21	0.000077	-0.000018	-0.000007	6.387523	-4.962554	31.178920	1.000000
[LeftForeArm]
# Tx<tab>Ty<tab>Tz<tab>Rx<tab>Ry<tab>Rz<tab>BoneScaleFactor<CR>
18	-0.000225	-0.000011	0.000115	-0.001939	0.033361	-5.099032	1.000000
19	-0.000076	0.000000	-0.000038	-0.006603	0.065251	-10.020241	1.000000
20	-0.000045	0.000059	-0.000039	-0.013356	0.094416	-14.591297	1.000000
21	-0.000085	0.000084	0.000114	-0.022651	0.123502	-19.254143	1.000000
[LeftHand]
# Tx<tab>Ty<tab>Tz<tab>Rx<tab>Ry<tab>Rz<tab>BoneScaleFactor<CR>
18	0.000079	0.000106	-0.000152	28.856867	13.308748	22.560279	1.000000
19	-0.000035	0.000110	0.000001	27.356283	16.800056	17.928714	1.000001
20	0.000043	0.000212	0.000001	24.356303	16.131137	12.492276	1.000001
21	-0.000033	0.000157	0.000002	19.352538	11.508621	6.298847	1.000001
[LeftHandIndex1]
# Tx<tab>Ty<tab>Tz<tab>Rx<tab>Ry<tab>Rz<tab>BoneScaleFactor<CR>
18	0.000000	0.000145	0.000076	-0.000007	0.000001	-0.000001	1.000000
19	0.000114	0.000123	0.000229	-0.000007	-0.000001	-0.000003	1.000001
20	-0.000076	0.000075	0.000076	-0.000000	0.000004	-0.000003	1.000001
21	0.000114	0.000178	0.000153	-0.000007	-0.000001	-0.000001	1.000001
[LeftHandIndex2]
# Tx<tab>Ty<tab>Tz<tab>Rx<tab>Ry<tab>Rz<tab>BoneScaleFactor<CR>
18	0.000000	0.000035	0.000153	0.000007	-0.000003	0.000003	1.000000
19	-0.000038	0.000016	-0.000000	0.000000	0.000003	0.000003	1.000000
20	-0.000076	0.000035	-0.000000	0.000000	0.000002	0.000001	1.000000
21	-0.000114	0.000022	-0.000000	0.000000	-0.000001	0.000000	1.000001
[LeftHandIndex3]
# Tx<tab>Ty<tab>Tz<tab>Rx<tab>Ry<tab>Rz<tab>BoneScaleFactor<CR>
18	0.000076	0.000009	-0.000077	-0.000000	0.000002	-0.000001	1.000000
19	0.000038	0.000173	-0.000001	-0.000003	-0.000003	0.000000	1.000000
20	0.000038	0.000020	0.000038	0.000000	0.000001	0.000003	1.000000
21	0.000077	-0.000126	-0.000001	0.000000	-0.000000	0.000001	1.000000
[LeftHandIndex4]
# Tx<tab>Ty<tab>Tz<tab>Rx<tab>Ry<tab>Rz<tab>BoneScaleFactor<CR>
18	-0.000038	0.000011	0.000076	0.000001	-0.000001	0.000000	1.000000
19	-0.000076	0.000022	0.000076	-0.000001	-0.000003	-0.000001	1.000000
20	-0.000076	0.000098	0.000076	-0.000001	-0.000002	0.000001	1.000000
21	-0.000038	0.000029	0.000153	0.000001	0.000000	-0.000000	1.000001
[LeftHandThumb1]
# Tx<tab>Ty<tab>Tz<tab>Rx<tab>Ry<tab>Rz<tab>BoneScaleFactor<CR>
18	0.000167	0.000024	-0.000088	0.000000	0.000002	0.000002	1.000000
19	0.000064	-0.000034	0.000054	-0.000000	0.000001	0.000002	1.000001
20	0.000108	-0.000024	0.000050	-0.000004	0.000001	-0.000001	1.000001
21	0.000152	0.000062	-0.000032	-0.000002	0.000000	0.000001	1.000001
[LeftHandThumb2]
# Tx<tab>Ty<tab>Tz<tab>Rx<tab>Ry<tab>Rz<tab>BoneScaleFactor<CR>
18	-0.000032	0.000088	-0.000007	0.000002	-0.000002	-0.000003	1.000000
19	-0.000061	-0.000049	0.000061	0.000006	0.000000	0.000009	1.000000
20	0.000058	0.000034	0.000056	0.000004	-0.000002	0.000001	1.000001
21	0.000062	-0.000034	0.000205	0.000005	0.000001	0.000012	1.000001
[LeftHandThumb3]
# Tx<tab>Ty<tab>Tz<tab>Rx<tab>Ry<tab>Rz<tab>BoneScaleFactor<CR>
18	0.000005	0.000085	0.000071	0.000002	0.000002	-0.000005	1.000000
19	0.000053	-0.000050	-0.000015	0.000002	-0.000001	-0.000003	1.000000
20	0.000058	0.000035	0.000132	0.000002	0.000001	-0.000004	1.000000
21	0.000028	0.000048	0.000048	0.000002	0.000000	-0.000004	1.000001
[LeftHandThumb4]
# Tx<tab>Ty<tab>Tz<tab>Rx<tab>Ry<tab>Rz<tab>BoneScaleFactor<CR>
18	-0.000002	-0.000003	0.000040	-0.000000	0.000002	-0.000000	1.000000
19	0.000002	0.000003	0.000075	0.000000	-0.000000	-0.000000	1.000000
20	-0.000033	0.000009	0.000033	-0.000000	-0.000003	0.000000	1.000000
21	0.000013	0.000023	-0.000051	-0.000001	0.000002	-0.000001	1.000001
[RightShoulder]
# Tx<tab>Ty<tab>Tz<tab>Rx<tab>Ry<tab>Rz<tab>BoneScaleFactor<CR>
18	0.000004	0.000017	0.000112	-4.678428	-1.143043	-11.150343	1.000000
19	0.000004	-0.000022	0.000036	-1.699669	-0.725998	-10.477875	1.000000
20	-0.000072	0.000017	0.000112	1.142966	-0.351628	-9.255169	1.000000
21	0.000002	0.000008	0.000132	2.535970	-0.179537	-7.548353	1.000000
[RightArm]
# Tx<tab>Ty<tab>Tz<tab>Rx<tab>Ry<tab>Rz<tab>BoneScaleFactor<CR>
18	-0.000040	0.000021	-0.000139	11.238281	6.123010	11.666824	1.000000
19	0.000037	-0.000028	-0.000222	9.379493	8.190828	11.926962	1.000000
20	-0.000040	0.000021	-0.000139	7.332703	10.184594	11.075346	1.000000
21	0.000037	0.000011	-0.000298	5.766011	11.269424	8.960087	1.000000
[RightForeArm]
# Tx<tab>Ty<tab>Tz<tab>Rx<tab>Ry<tab>Rz<tab>BoneScaleFactor<CR>
18	-0.000012	-0.000108	-0.000039	0.001161	0.020454	3.158685	1.000000
19	0.000064	-0.000108	-0.000001	0.000696	0.014242	2.203762	1.000000
20	-0.000050	-0.000261	-0.000001	0.000526	0.011760	1.816415	1.000000
21	0.000026	-0.000184	0.000037	0.000730	0.014485	2.233771	1.000000
[RightHand]
# Tx<tab>Ty<tab>Tz<tab>Rx<tab>Ry<tab>Rz<tab>BoneScaleFactor<CR>
18	0.000077	-0.000042	0.000077	3.136013	2.457401	-4.306960	1.000000
19	-0.000076	-0.000021	0.000076	3.487642	2.080129	-4.812842	1.000000
20	0.000001	-0.000042	0.000077	3.407179	1.954631	-5.270694	1.000000
21	-0.000076	-0.000042	0.000077	3.044346	2.078239	-5.414363	1.000000
[RightHandIndex1]
# Tx<tab>Ty<tab>Tz<tab>Rx<tab>Ry<tab>Rz<tab>BoneScaleFactor<CR>
18	-0.000019	-0.000027	0.000000	-0.000000	0.000003	-0.000003	1.000000
19	0.000019	-0.000041	0.000000	-0.000000	-0.000001	-0.000001	1.000000
20	0.000018	-0.000055	0.000038	0.000003	0.000001	0.000001	1.000000
21	-0.000096	-0.000041	0.000000	-0.000000	0.000002	-0.000000	1.000000
[RightHandIndex2]
# Tx<tab>Ty<tab>Tz<tab>Rx<tab>Ry<tab>Rz<tab>BoneScaleFactor<CR>
18	0.000038	0.000022	-0.000000	-0.000000	0.000001	-0.000003	1.000000
19	0.000038	0.000007	-0.000000	0.000000	0.000003	-0.000000	1.000000
20	-0.000076	-0.000069	0.000153	0.000007	-0.000001	-0.000003	1.000000
21	-0.000038	0.000011	-0.000000	-0.000000	-0.000001	-0.000004	1.000000
[RightHandIndex3]
# Tx<tab>Ty<tab>Tz<tab>Rx<tab>Ry<tab>Rz<tab>BoneScaleFactor<CR>
18	-0.000019	-0.000106	-0.000114	0.000000	0.000002	0.000000	1.000001
19	0.000057	-0.000042	0.000000	0.000000	0.000002	0.000000	1.000001
20	0.000019	-0.000188	0.000000	0.000000	0.000003	0.000001	1.000001
21	0.000019	0.000120	-0.000038	-0.000000	0.000001	-0.000004	1.000001
[RightHandIndex4]
# Tx<tab>Ty<tab>Tz<tab>Rx<tab>Ry<tab>Rz<tab>BoneScaleFactor<CR>
18	-0.000000	-0.000011	0.000076	-0.000004	0.000003	-0.000000	1.000000
19	0.000076	0.000130	0.000038	-0.000003	0.000002	-0.000001	1.000001
20	-0.000000	-0.000020	0.000076	-0.000004	0.000000	-0.000001	1.000001
21	0.000038	-0.000017	0.000076	-0.000003	0.000001	-0.000001	1.000001
[RightHandThumb1]
# Tx<tab>Ty<tab>Tz<tab>Rx<tab>Ry<tab>Rz<tab>BoneScaleFactor<CR>
18	-0.000071	-0.000086	-0.000005	0.000001	-0.000001	-0.000003	1.000000
19	0.000008	-0.000014	-0.000046	0.000001	-0.000003	-0.000002	1.000001
20	-0.000065	-0.000096	0.000028	0.000002	-0.000002	-0.000002	1.000000
21	-0.000068	-0.000014	-0.000008	0.000001	-0.000002	-0.000004	1.000000
[RightHandThumb2]
# Tx<tab>Ty<tab>Tz<tab>Rx<tab>Ry<tab>Rz<tab>BoneScaleFactor<CR>
18	0.000044	0.000070	-0.000043	0.000000	-0.000003	-0.000000	1.000000
19	0.000058	0.000053	-0.000016	0.000001	-0.000001	0.000000	1.000000
20	0.000050	0.000140	-0.000048	-0.000001	0.000001	-0.000000	1.000000
21	0.000053	0.000136	-0.000012	0.000002	-0.000000	0.000008	1.000000
[RightHandThumb3]
# Tx<tab>Ty<tab>Tz<tab>Rx<tab>Ry<tab>Rz<tab>BoneScaleFactor<CR>
18	0.000000	0.000076	0.000076	0.000000	0.000005	-0.000002	1.000000
19	-0.000068	-0.000011	0.000067	0.000004	0.000004	-0.000001	1.000000
20	0.000076	0.000000	0.000076	-0.000000	0.000001	0.000000	1.000000
21	0.000009	0.000141	0.000105	-0.000003	0.000002	-0.000002	1.000000
[RightHandThumb4]
# Tx<tab>Ty<tab>Tz<tab>Rx<tab>Ry<tab>Rz<tab>BoneScaleFactor<CR>
18	0.000240	0.000065	0.000067	-0.000000	0.000001	0.000000	1.000001
19	0.000094	0.000057	-0.000014	-0.000001	0.000000	-0.000001	1.000001
20	0.000087	0.000103	-0.000009	0.000000	-0.000001	0.000001	1.000000
21	0.000094	0.000057	-0.000052	-0.000000	-0.000000	-0.000001	1.000000
[LeftUpLeg]
# Tx<tab>Ty<tab>Tz<tab>Rx<tab>Ry<tab>Rz<tab>BoneScaleFactor<CR>
18	-0.000029	0.000010	0.000000	15.471116	-16.907771	-12.286752	1.000000
19	-0.000019	-0.000029	0.000000	16.207695	-15.110583	-11.951821	1.000000
20	-0.000029	0.000010	0.000076	16.862284	-12.371561	-11.549352	1.000000
21	-0.000010	0.000010	0.000000	17.000122	-8.679372	-10.739282	1.000000
[LeftLeg]
# Tx<tab>Ty<tab>Tz<tab>Rx<tab>Ry<tab>Rz<tab>BoneScaleFactor<CR>
18	0.000005	-0.000133	0.000022	1.048134	18.503198	-2.787447	1.000000
19	0.000036	0.000095	0.000027	1.233448	17.184143	-2.803167	1.000000
20	0.000038	0.000019	-0.000076	1.651386	14.563010	-2.719866	1.000000
21	0.000002	0.000095	-0.000142	2.353816	10.486294	-2.408427	1.000000
[LeftFoot]
# Tx<tab>Ty<tab>Tz<tab>Rx<tab>Ry<tab>Rz<tab>BoneScaleFactor<CR>
18	-0.000004	-0.000000	-0.000137	-5.665592	-6.525878	-15.279703	1.000000
19	-0.000067	0.000076	-0.000046	-6.080899	-5.964462	-15.365324	1.000000
20	-0.000042	-0.000000	-0.000061	-6.657469	-5.318404	-14.655619	1.000000
21	0.000000	-0.000000	-0.000030	-7.437172	-4.300302	-13.674770	1.000000
[LeftToeBase]
# Tx<tab>Ty<tab>Tz<tab>Rx<tab>Ry<tab>Rz<tab>BoneScaleFactor<CR>
18	-0.000006	0.000115	0.000025	0.000007	-10.283352	0.000025	1.000000
19	0.000006	-0.000115	0.000013	-0.000001	-10.122498	0.000001	1.000000
20	0.000019	-0.000038	0.000019	0.000006	-9.716805	0.000042	1.000000
21	-0.000013	-0.000039	0.000013	0.000011	-10.131150	0.000016	1.000000
[LeftToe_End]
# Tx<tab>Ty<tab>Tz<tab>Rx<tab>Ry<tab>Rz<tab>BoneScaleFactor<CR>
18	-0.000029	-0.000038	-0.000000	-0.000000	0.000000	0.000003	1.000000
19	-0.000049	0.000038	0.000001	0.000000	-0.000000	0.000003	1.000000
20	-0.000019	0.000114	0.000007	-0.000000	-0.000001	0.000003	1.000000
21	-0.000029	0.000038	-0.000003	-0.000000	-0.000000	0.000002	1.000000
[RightUpLeg]
# Tx<tab>Ty<tab>Tz<tab>Rx<tab>Ry<tab>Rz<tab>BoneScaleFactor<CR>
18	-0.000024	-0.000038	-0.000076	-7.922164	-3.742092	1.144440	1.000000
19	-0.000005	0.000000	0.000000	-7.385163	-3.425066	-0.129478	1.000000
20	-0.000014	0.000000	0.000076	-7.842388	-4.050433	-0.563072	1.000000
21	0.000005	0.000000	0.000000	-7.577598	-4.742820	-0.681958	1.000000
[RightLeg]
# Tx<tab>Ty<tab>Tz<tab>Rx<tab>Ry<tab>Rz<tab>BoneScaleFactor<CR>
18	0.000000	0.000095	0.000000	-3.495864	-19.096275	11.265692	1.000000
19	-0.000002	0.000000	0.000103	-4.737343	-19.067733	11.933892	1.000000
20	-0.000041	0.000038	0.000027	-4.115277	-18.249701	10.677990	1.000000
21	-0.000041	0.000000	-0.000011	-3.748062	-16.554242	10.235782	1.000000
[RightFoot]
# Tx<tab>Ty<tab>Tz<tab>Rx<tab>Ry<tab>Rz<tab>BoneScaleFactor<CR>
18	-0.000010	-0.000005	0.000107	-14.472305	21.125588	-5.825989	1.000000
19	-0.000001	-0.000000	0.000137	-17.802149	22.273653	-3.834827	1.000000
20	-0.000019	0.000005	0.000038	-16.270835	24.746441	1.250163	1.000000
21	-0.000010	0.000005	0.000137	-15.315398	23.976710	4.195546	1.000000
[RightToeBase]
# Tx<tab>Ty<tab>Tz<tab>Rx<tab>Ry<tab>Rz<tab>BoneScaleFactor<CR>
18	0.000019	0.000005	0.000000	0.000008	-20.478698	-0.000009	1.000000
19	-0.000038	-0.000002	0.000019	0.000001	-16.783336	0.000021	1.000000
20	0.000013	-0.000011	0.000006	0.000026	-11.828726	-0.000013	1.000000
21	-0.000038	0.000017	0.000076	0.000015	-8.558458	0.000013	1.000000
[RightToe_End]
# Tx<tab>Ty<tab>Tz<tab>Rx<tab>Ry<tab>Rz<tab>BoneScaleFactor<CR>
18	0.000009	0.000010	0.000004	-0.000001	-0.000000	0.000001	1.000000
19	-0.000021	0.000005	-0.000006	-0.000001	-0.000000	0.000001	1.000000
20	0.000000	0.000000	0.000005	-0.000001	0.000000	0.000001	1.000000
21	-0.000051	0.000000	-0.000002	-0.000001	0.000000	0.000000	1.000000
[EndOfFile]
